<svg width="421" height="100" viewBox="0 0 421 100" fill="none" xmlns="http://www.w3.org/2000/svg">
<g clip-path="url(#clip0_335_204)">
<path d="M173.217 65.0211C172.996 64.5964 172.822 64.1089 172.664 63.5426C172.506 62.9921 172.38 62.3945 172.285 61.7811C171.796 62.3158 171.227 62.8191 170.58 63.291C169.932 63.7628 169.221 64.1718 168.416 64.5492C167.642 64.8953 166.789 65.1626 165.841 65.3514C164.894 65.5716 163.883 65.6659 162.777 65.6659C160.992 65.6659 159.35 65.4143 157.849 64.8953C156.365 64.3762 155.085 63.6685 154.011 62.7405C152.937 61.8283 152.1 60.7273 151.5 59.469C150.9 58.1793 150.6 56.7952 150.6 55.3011C150.6 51.6364 151.958 48.821 154.69 46.8393C157.439 44.8261 161.529 43.8195 166.963 43.8195H171.954V41.7591C171.954 40.0919 171.401 38.7707 170.311 37.8113C169.221 36.8204 167.642 36.3328 165.573 36.3328C163.741 36.3328 162.414 36.726 161.577 37.5124C160.74 38.2831 160.313 39.3212 160.313 40.6266H151.358C151.358 39.1482 151.674 37.7484 152.321 36.4272C152.985 35.106 153.948 33.9421 155.196 32.9355C156.459 31.9289 157.991 31.1425 159.808 30.5606C161.64 29.9629 163.709 29.6641 166.062 29.6641C168.163 29.6641 170.122 29.9157 171.922 30.4347C173.754 30.9538 175.334 31.7087 176.66 32.7153C177.987 33.7219 179.03 34.9959 179.788 36.5373C180.546 38.0629 180.909 39.8245 180.909 41.8377V56.7166C180.909 58.5725 181.02 60.1139 181.257 61.3407C181.493 62.5675 181.841 63.6056 182.283 64.4863V65.0368H173.217V65.0211ZM164.672 58.7613C165.573 58.7613 166.41 58.6512 167.184 58.4467C167.958 58.2265 168.653 57.9591 169.284 57.6131C169.9 57.2671 170.437 56.8896 170.895 56.4649C171.353 56.0088 171.701 55.5684 171.954 55.1123V49.1513H167.373C165.983 49.1513 164.783 49.2929 163.804 49.576C162.809 49.8276 162.003 50.2051 161.387 50.6927C160.771 51.1645 160.297 51.7465 159.997 52.4228C159.697 53.0834 159.539 53.8069 159.539 54.609C159.539 55.8044 159.966 56.7952 160.803 57.5974C161.671 58.3681 162.967 58.7613 164.672 58.7613Z" fill="white"/>
<path d="M216.099 29.6641C217.457 29.6641 218.705 29.7584 219.842 29.9472C220.995 30.1202 221.943 30.3089 222.638 30.5291L221.311 39.4156C220.126 39.1324 218.91 38.928 217.678 38.8022C216.446 38.6449 215.277 38.582 214.172 38.582C211.66 38.582 209.639 39.0695 208.123 40.029C206.622 40.9884 205.485 42.3725 204.743 44.1655V65.0211H195.787V30.3089H204.127L204.553 35.9868C205.975 34.0208 207.665 32.4794 209.639 31.3627C211.597 30.2303 213.761 29.6641 216.099 29.6641Z" fill="white"/>
<path d="M252.979 54.1526L256.011 30.3086H264.225L257.97 65.0208H250.104L245.524 42.9541L241.117 65.0208H233.252L226.997 30.3086H235.179L238.211 54.2469L242.586 30.3086H248.572L252.979 54.1526Z" fill="white"/>
<path d="M287.237 65.6661C284.552 65.6661 282.119 65.2257 279.924 64.3449C277.729 63.4641 275.849 62.2845 274.285 60.7903C272.722 59.2647 271.506 57.5031 270.653 55.4584C269.816 53.398 269.389 51.2118 269.389 48.884V47.5943C269.389 44.9363 269.816 42.5298 270.653 40.3436C271.49 38.1417 272.659 36.2543 274.159 34.6657C275.66 33.0772 277.444 31.8504 279.513 30.9696C281.582 30.0888 283.825 29.6484 286.242 29.6484C288.753 29.6484 290.996 30.0731 292.939 30.9067C294.913 31.7246 296.571 32.8727 297.93 34.3669C299.304 35.8611 300.346 37.6698 301.057 39.7931C301.768 41.885 302.115 44.2128 302.115 46.7607V50.5512H278.471C278.645 51.7309 278.992 52.8004 279.498 53.7913C280.035 54.7507 280.714 55.5843 281.519 56.292C282.341 56.9998 283.272 57.5503 284.315 57.9278C285.373 58.3052 286.51 58.5097 287.758 58.5097C288.643 58.5097 289.511 58.4311 290.364 58.2581C291.249 58.0851 292.086 57.8334 292.875 57.5188C293.665 57.1728 294.408 56.7639 295.102 56.2606C295.797 55.773 296.398 55.1911 296.903 54.5305L301.389 59.3433C300.836 60.1297 300.094 60.9161 299.193 61.6868C298.309 62.4418 297.266 63.1024 296.034 63.7158C294.834 64.2977 293.491 64.7695 292.007 65.1313C290.554 65.4773 288.958 65.6661 287.237 65.6661ZM286.163 36.8834C285.152 36.8834 284.236 37.0722 283.399 37.4339C282.562 37.7799 281.819 38.2832 281.172 38.9438C280.556 39.6044 280.019 40.3908 279.592 41.3188C279.166 42.231 278.834 43.2691 278.629 44.4015H293.318V43.6937C293.27 42.75 293.097 41.8693 292.765 41.0357C292.449 40.2021 291.975 39.4786 291.375 38.8809C290.775 38.2675 290.032 37.7799 289.148 37.4339C288.311 37.0722 287.3 36.8834 286.163 36.8834Z" fill="white"/>
<path d="M331.73 65.0211C331.509 64.5964 331.335 64.1089 331.177 63.5426C331.035 62.9921 330.893 62.3945 330.798 61.7811C330.308 62.3158 329.74 62.8191 329.092 63.291C328.445 63.7628 327.734 64.1718 326.928 64.5492C326.154 64.8953 325.302 65.1626 324.354 65.3514C323.406 65.5716 322.395 65.6659 321.29 65.6659C319.505 65.6659 317.862 65.4143 316.362 64.8953C314.877 64.3762 313.598 63.6685 312.524 62.7405C311.45 61.8283 310.613 60.7273 310.013 59.469C309.412 58.1793 309.112 56.7952 309.112 55.3011C309.112 51.6364 310.471 48.821 313.203 46.8393C315.951 44.8261 320.042 43.8195 325.475 43.8195H330.466V41.7591C330.466 40.0919 329.914 38.7707 328.824 37.8113C327.734 36.8204 326.154 36.3328 324.085 36.3328C322.253 36.3328 320.927 36.726 320.089 37.5124C319.252 38.2831 318.826 39.3212 318.826 40.6266H309.886C309.886 39.1482 310.202 37.7484 310.85 36.4272C311.513 35.106 312.477 33.9421 313.724 32.9355C314.988 31.9289 316.52 31.1425 318.336 30.5606C320.168 29.9629 322.253 29.6641 324.591 29.6641C326.692 29.6641 328.65 29.9157 330.451 30.4347C332.267 30.9538 333.846 31.7087 335.189 32.7153C336.531 33.7219 337.558 34.9959 338.316 36.5373C339.074 38.0629 339.438 39.8245 339.438 41.8377V56.7166C339.438 58.5725 339.564 60.1139 339.801 61.3407C340.038 62.5675 340.385 63.6056 340.827 64.4863V65.0368H331.73V65.0211ZM323.185 58.7613C324.085 58.7613 324.923 58.6512 325.696 58.4467C326.47 58.2265 327.165 57.9591 327.781 57.6131C328.413 57.2671 328.95 56.8896 329.392 56.4649C329.85 56.0088 330.198 55.5684 330.451 55.1123V49.1513H325.87C324.48 49.1513 323.28 49.2929 322.285 49.576C321.29 49.8276 320.5 50.2051 319.868 50.6927C319.237 51.1645 318.778 51.7465 318.478 52.4228C318.178 53.0834 318.02 53.8069 318.02 54.609C318.02 55.8044 318.431 56.7952 319.284 57.5974C320.184 58.3681 321.464 58.7613 323.185 58.7613Z" fill="white"/>
<path d="M364.392 54.7188L364.85 57.2196L365.308 54.8132L372.969 30.3086H382.319L369.083 65.0208H360.681L347.382 30.3086H356.732L364.392 54.7188Z" fill="white"/>
<path d="M406.121 65.6661C403.436 65.6661 401.004 65.2257 398.808 64.3449C396.613 63.4641 394.734 62.2845 393.17 60.7903C391.606 59.2647 390.39 57.5031 389.521 55.4584C388.684 53.398 388.258 51.2118 388.258 48.884V47.5943C388.258 44.9363 388.684 42.5298 389.521 40.3436C390.358 38.1417 391.527 36.2543 393.028 34.6657C394.528 33.0772 396.313 31.8504 398.382 30.9696C400.451 30.0888 402.694 29.6484 405.11 29.6484C407.622 29.6484 409.849 30.0731 411.807 30.9067C413.782 31.7246 415.456 32.8727 416.798 34.3669C418.172 35.8611 419.215 37.6698 419.926 39.7931C420.636 41.885 420.984 44.2128 420.984 46.7607V50.5512H397.34C397.513 51.7309 397.861 52.8004 398.366 53.7913C398.903 54.7507 399.582 55.5843 400.388 56.292C401.209 56.9998 402.141 57.5503 403.199 57.9278C404.258 58.3052 405.395 58.5097 406.643 58.5097C407.527 58.5097 408.396 58.4311 409.249 58.2581C410.133 58.0851 410.97 57.8334 411.76 57.5188C412.55 57.1728 413.292 56.7639 413.987 56.2606C414.682 55.773 415.282 55.1911 415.787 54.5305L420.257 59.3433C419.705 60.1297 418.962 60.9161 418.062 61.6868C417.177 62.4418 416.135 63.1024 414.903 63.7158C413.703 64.2977 412.36 64.7695 410.875 65.1313C409.438 65.4773 407.827 65.6661 406.121 65.6661ZM405.047 36.8834C404.036 36.8834 403.12 37.0722 402.283 37.4339C401.446 37.7799 400.704 38.2832 400.056 38.9438C399.44 39.6044 398.903 40.3908 398.477 41.3188C398.05 42.231 397.719 43.2691 397.513 44.4015H412.202V43.6937C412.155 42.75 411.981 41.8693 411.649 41.0357C411.333 40.2021 410.86 39.4786 410.259 38.8809C409.659 38.2675 408.917 37.7799 408.032 37.4339C407.195 37.0722 406.184 36.8834 405.047 36.8834Z" fill="white"/>
<path fill-rule="evenodd" clip-rule="evenodd" d="M50.2103 7.85993C26.8388 7.85993 7.8925 26.7268 7.8925 50.0003C7.8925 73.2739 26.8388 92.1408 50.2103 92.1408C73.5817 92.1408 92.528 73.2739 92.528 50.0003C92.528 26.7268 73.5817 7.85993 50.2103 7.85993ZM0.00439453 50.0003C0.00439453 22.3886 22.4823 0.00488281 50.2103 0.00488281C77.9382 0.00488281 100.416 22.3886 100.416 50.0003C100.416 77.6121 77.9382 99.9958 50.2103 99.9958C22.4823 99.9958 0.00439453 77.6121 0.00439453 50.0003Z" fill="white"/>
<path d="M58.85 66.6569C58.6288 66.2165 58.4393 65.6975 58.2814 65.1156C58.1234 64.5336 57.9971 63.9202 57.8707 63.2754C57.3495 63.8416 56.7651 64.3606 56.0859 64.8482C55.4068 65.3358 54.6644 65.7762 53.8273 66.1536C53.0218 66.5154 52.1216 66.7985 51.1265 66.9872C50.1315 67.2074 49.0732 67.3175 47.9202 67.3175C46.0565 67.3175 44.3349 67.0501 42.7713 66.5154C41.2234 65.9806 39.8809 65.2257 38.7595 64.2662C37.6381 63.3068 36.7536 62.1587 36.1376 60.8375C35.5058 59.5006 35.1899 58.0379 35.1899 56.4808C35.1899 52.6588 36.6114 49.7019 39.4702 47.6258C42.3448 45.5182 46.6251 44.4644 52.3111 44.4644H57.539V42.3097C57.539 40.5638 56.9704 39.1955 55.8174 38.1889C54.6644 37.1665 53.0218 36.6475 50.858 36.6475C48.9469 36.6475 47.557 37.0564 46.6725 37.89C45.8038 38.6922 45.3615 39.7774 45.3615 41.1458H35.9955C35.9955 39.6044 36.3271 38.1417 37.0063 36.7419C37.7013 35.3578 38.6963 34.131 40.0072 33.0772C41.334 32.0234 42.945 31.2055 44.8245 30.5921C46.7357 29.963 48.9153 29.6484 51.3634 29.6484C53.5588 29.6484 55.6121 29.9158 57.4916 30.4506C59.4028 30.9853 61.0454 31.7875 62.4511 32.8255C63.841 33.8793 64.9308 35.2162 65.7205 36.8205C66.5103 38.4091 66.9051 40.2493 66.9051 42.3568V57.9278C66.9051 59.8781 67.0315 61.4823 67.2684 62.7563C67.5211 64.0303 67.8686 65.1313 68.3424 66.0435V66.6097H58.85V66.6569ZM49.9103 60.114C50.858 60.114 51.7267 60.0039 52.5322 59.7837C53.3377 59.5635 54.0643 59.2647 54.7276 58.9187C55.3752 58.5569 55.9438 58.1637 56.4176 57.7076C56.8915 57.2357 57.2547 56.7639 57.5232 56.292V50.0479H52.7533C51.3002 50.0479 50.0525 50.1895 49.01 50.4883C47.9834 50.7557 47.1305 51.1489 46.4829 51.6679C45.8354 52.1555 45.3457 52.7689 45.0299 53.4767C44.714 54.1687 44.556 54.9237 44.556 55.7573C44.556 57.0155 44.9983 58.0536 45.867 58.8715C46.7672 59.6893 48.1256 60.114 49.9103 60.114Z" fill="white"/>
</g>
<defs>
<clipPath id="clip0_335_204">
<rect width="421" height="100" fill="white"/>
</clipPath>
</defs>
</svg>
