<svg width="328" height="58" viewBox="0 0 328 58" fill="none" xmlns="http://www.w3.org/2000/svg">
<g clip-path="url(#clip0_335_215)">
<path d="M0.24744 0.469727C2.70219 0.469727 5.17848 0.469727 7.83779 0.469727C7.83779 8.641 7.83779 16.7161 7.83779 24.802C7.94545 24.8233 8.06389 24.8554 8.17155 24.8767C8.68834 23.7979 9.10823 22.6657 9.73269 21.6509C13.7055 15.1567 22.0387 12.9456 29.5537 16.4384C34.5494 18.7563 37.7147 22.7298 39.2974 27.8675C41.7844 35.964 41.3215 43.8469 36.1859 50.8646C31.9116 56.7073 25.8501 58.8756 18.7119 57.4977C13.7486 56.5364 10.5725 53.3106 8.72064 48.739C8.54838 48.3117 8.38688 47.8845 7.93469 47.4786C7.93469 50.6616 7.93469 53.8447 7.93469 57.1239C5.23231 57.1239 2.75602 57.1239 0.290506 57.1239C-0.0755534 55.6498 -0.0970863 2.18943 0.24744 0.469727ZM7.90239 36.2631C7.82702 39.115 8.44071 41.8067 9.89418 44.2635C12.2951 48.3438 15.8265 50.7364 20.6822 50.715C25.0641 50.6937 28.5847 48.8031 30.6519 44.9257C33.5373 39.5102 33.6234 33.8811 30.9318 28.3802C28.1003 22.5909 21.1667 20.3158 15.3851 23.2745C10.1203 25.9449 8.05312 30.6126 7.90239 36.2631Z" fill="white"/>
<path d="M134.667 38.6131C135.14 44.7869 139.038 49.4013 144.464 50.4053C150.956 51.6123 154.175 49.8178 157.352 43.1633C159.925 43.1633 162.53 43.1633 165.373 43.1633C163.951 49.2731 160.883 54.0156 155.037 56.3762C144.669 60.5633 129.972 56.6646 127.27 41.4543C126.172 35.2911 126.732 29.3416 130.112 23.8407C134.333 16.9619 142.375 13.6399 151.193 15.2315C158.654 16.5666 164.274 22.3773 165.652 30.2709C165.911 31.7235 166.008 33.2083 166.094 34.6823C166.169 35.9107 166.105 37.1604 166.105 38.6131C155.5 38.6131 145.089 38.6131 134.667 38.6131ZM158.073 32.0226C157.987 26.009 153.293 21.6403 147.21 21.683C140.771 21.7364 135.862 25.774 135.27 32.0226C142.838 32.0226 150.386 32.0226 158.073 32.0226Z" fill="white"/>
<path d="M279.573 14.8683C293.095 14.8256 300.653 25.6351 299.91 37.9508C299.577 43.5585 297.789 48.6429 293.58 52.5736C287.798 57.9784 280.843 59.0679 273.457 57.0385C265.91 54.9769 261.679 49.5722 259.892 42.1913C258.75 37.4915 258.966 32.7917 260.57 28.2094C263.552 19.6856 270.464 14.8683 279.573 14.8683ZM267.094 36.4661C267.116 38.1858 267.396 39.8734 267.848 41.5291C269.269 46.6561 273.446 50.2344 278.464 50.683C283.621 51.1423 288.218 48.6322 290.436 43.7508C292.88 38.3781 292.805 32.9412 289.736 27.7928C285.817 21.2024 276.806 19.9847 271.304 25.3254C268.225 28.3269 267.17 32.2576 267.094 36.4661Z" fill="white"/>
<path d="M216.966 42.7466C219.474 42.7466 221.854 42.7466 224.351 42.7466C224.954 45.2674 225.923 47.5426 228.217 49.07C231.996 51.5908 239.457 51.7617 243.236 49.273C244.905 48.1835 245.777 46.6774 245.572 44.6372C245.378 42.7039 244.086 41.8067 242.439 41.1658C239.511 40.0442 236.431 39.7558 233.352 39.4247C230.262 39.0829 227.237 38.5702 224.373 37.2991C216.363 33.7315 216.567 24.0008 221.95 19.3223C226.591 15.2954 232.146 14.4623 238.025 15.0177C241.771 15.3702 245.228 16.5665 248.005 19.2476C250.654 21.8004 251.935 24.9407 252.215 28.6685C249.642 28.6685 247.155 28.6685 244.668 28.6685C242.924 23.1783 239.026 20.8818 232.986 21.7897C231.156 22.0674 229.358 22.4306 227.84 23.6162C225.073 25.7953 225.482 29.5017 228.712 30.901C232.157 32.3964 235.904 32.4284 239.532 32.9945C242.364 33.4325 245.152 34.0413 247.758 35.2803C253.238 37.8866 254.153 41.7319 253.227 46.859C252.366 51.6549 249.168 54.6564 244.678 56.2906C238.585 58.5017 232.415 58.5872 226.289 56.4402C220.572 54.4214 216.546 48.4932 216.966 42.7466Z" fill="white"/>
<path d="M172.188 15.5948C174.793 15.5948 177.269 15.5948 179.939 15.5948C179.939 18.8313 179.939 21.993 179.939 25.1547C181.059 23.5097 181.662 21.6939 182.889 20.2198C186.572 15.8084 191.438 14.2917 196.95 15.0073C205.068 16.0648 209.601 20.6578 209.946 28.9359C210.344 38.2714 210.032 47.6283 210.032 57.1027C207.48 57.1027 204.95 57.1027 202.398 57.1027C202.054 56.4191 202.215 55.7035 202.215 55.0092C202.183 47.4254 202.172 39.8523 202.151 32.2685C202.151 31.6169 202.14 30.9547 202.021 30.3244C201.365 26.586 199.965 23.2854 195.895 22.1639C191.266 20.8821 187.282 22.2707 184.063 25.6994C181.296 28.6368 180.047 32.2471 179.993 36.2099C179.907 42.544 179.961 48.878 179.961 55.2228C179.961 55.8103 179.961 56.3977 179.961 57.1134C177.334 57.1134 174.804 57.1134 172.155 57.1134C172.188 43.3344 172.188 29.5661 172.188 15.5948Z" fill="white"/>
<path d="M103.003 22.7518C97.5119 22.7518 92.2794 22.7518 87.0577 22.7518C86.7347 18.9706 89.8569 15.638 93.819 15.5739C99.902 15.4885 105.996 15.5312 112.079 15.5312C116.848 15.5312 121.618 15.5312 126.366 15.5312C127.012 19.1415 123.653 22.6664 119.551 22.7198C115.309 22.7732 111.078 22.7305 106.836 22.7411C106.383 22.7411 105.899 22.5702 105.328 23.0082C106.147 23.4461 106.954 23.7559 107.622 24.2472C109.764 25.8174 110.916 27.9109 110.927 30.6026C110.938 36.8833 110.959 43.1533 111.002 49.434C111.013 50.3739 111.088 51.3246 111.25 52.2538C111.648 54.6144 113.209 55.9176 115.923 56.4837C112.811 58.2247 110.033 58.3209 107.223 57.1352C104.144 55.8428 103.014 53.2899 103.003 50.1496C102.992 41.7968 103.003 33.4546 103.003 25.1017C103.003 24.4074 103.003 23.7025 103.003 22.7518Z" fill="white"/>
<path d="M328 22.6976C326.191 22.719 324.415 22.7938 322.681 23.1997C317.837 24.3426 314.843 28.2092 314.348 33.6888C313.713 40.6637 314.187 47.6494 314.036 54.6243C314.014 55.3934 314.036 56.1625 314.036 57.0811C311.452 57.0811 308.933 57.0811 306.284 57.0811C306.284 43.3127 306.284 29.5551 306.284 15.6586C308.804 15.6586 311.28 15.6586 313.961 15.6586C313.961 18.8844 313.961 22.1529 313.961 25.4214C316.082 18.5319 320.614 15.007 328 14.8682C328 17.4851 328 20.038 328 22.6976Z" fill="white"/>
<path d="M87.8759 56.5154C84.8721 58.2992 81.8467 58.3953 78.8536 56.7824C76.1297 55.3084 75.333 52.7983 75.3437 49.8929C75.3653 41.5401 75.3545 33.1872 75.3437 24.8344C75.3437 24.2041 75.4945 23.5419 75.0961 22.7408C69.8852 22.7408 64.5988 22.7408 59.3125 22.7408C59.4309 19.0344 61.8964 15.8086 65.2556 15.6697C71.1987 15.424 77.174 15.6056 83.1171 15.6056C83.4509 18.9275 81.696 21.0531 77.0556 22.8583C79.9841 23.873 82.1481 25.5073 83.0095 28.4767C83.2894 29.4701 83.3109 30.4635 83.3109 31.4675C83.3217 37.4491 83.3109 43.4307 83.3109 49.4123C83.3109 50.2347 83.4186 51.0465 83.537 51.869C83.9138 54.3898 85.2704 55.9279 87.8759 56.5154Z" fill="white"/>
<path d="M46.5215 15.6162C49.1162 15.6162 51.6032 15.6162 54.198 15.6162C54.198 29.4486 54.198 43.2063 54.198 57.0921C51.6894 57.0921 49.1593 57.0921 46.5215 57.0921C46.5215 43.3344 46.5215 29.5768 46.5215 15.6162Z" fill="white"/>
<path d="M55.7164 5.55447C55.6733 8.66276 53.52 10.799 50.4516 10.767C47.3185 10.7349 44.9284 8.44913 44.9176 5.46902C44.8961 2.45686 47.5016 -0.0853108 50.5162 0.00014042C53.5846 0.096273 55.7487 2.41414 55.7164 5.55447Z" fill="white"/>
</g>
<defs>
<clipPath id="clip0_335_215">
<rect width="328" height="58" fill="white"/>
</clipPath>
</defs>
</svg>
